HIERARCHY
ROOT Hips
{
	OFFSET 0.000000 0.000000 0.000000 
	CHANNELS 6 Xposition Yposition Zposition Zrotation Yrotation Xrotation
	JOINT LeftUpLeg
	{
		OFFSET 1.363060 -1.794630 0.839290 
		CHANNELS 3 Zrotation Yrotation Xrotation
		JOINT LeftLeg
		{
			OFFSET 2.448110 -6.726130 0.000000 
			CHANNELS 3 Zrotation Yrotation Xrotation
			JOINT LeftFoot
			{
				OFFSET 2.562200 -7.039590 0.000000 
				CHANNELS 3 Zrotation Yrotation Xrotation
				JOINT LeftToeBase
				{
					OFFSET 0.157640 -0.433110 2.322550 
					CHANNELS 3 Zrotation Yrotation Xrotation
					End Site
					{
						OFFSET 0.000000 0.000000 0.000000 
					}
				}
			}
		}
	}
	JOINT RightUpLeg
	{
		OFFSET -1.305520 -1.794630 0.839290 
		CHANNELS 3 Zrotation Yrotation Xrotation
		JOINT RightLeg
		{
			OFFSET -2.542530 -6.985550 0.000000 
			CHANNELS 3 Zrotation Yrotation Xrotation
			JOINT RightFoot
			{
				OFFSET -2.568260 -7.056230 0.000000 
				CHANNELS 3 Zrotation Yrotation Xrotation
				JOINT RightToeBase
				{
					OFFSET -0.164730 -0.452590 2.363150 
					CHANNELS 3 Zrotation Yrotation Xrotation
					End Site
					{
						OFFSET 0.000000 0.000000 0.000000 
					}
				}
			}
		}
	}
	JOINT Spine
	{
		OFFSET 0.028270 2.035590 -0.193380 
		CHANNELS 3 Zrotation Yrotation Xrotation
		JOINT Spine1
		{
			OFFSET 0.056720 2.048850 -0.042750 
			CHANNELS 3 Zrotation Yrotation Xrotation
			JOINT Neck1
			{
				OFFSET -0.054170 1.746240 0.172020 
				CHANNELS 3 Zrotation Yrotation Xrotation
				JOINT Head
				{
					OFFSET 0.104070 1.761360 -0.123970 
					CHANNELS 3 Zrotation Yrotation Xrotation
					End Site
					{
						OFFSET 0.000000 0.000000 0.000000 
					}
				}
			}
			JOINT LeftArm
			{
				OFFSET 3.362410 1.200890 -0.311210 
				CHANNELS 3 Zrotation Yrotation Xrotation
				JOINT LeftForeArm
				{
					OFFSET 4.983000 -0.000000 -0.000000 
					CHANNELS 3 Zrotation Yrotation Xrotation
					JOINT LeftHand
					{
						OFFSET 3.483560 -0.000000 -0.000000 
						CHANNELS 3 Zrotation Yrotation Xrotation
						JOINT LeftHandIndex1
						{
							OFFSET 0.715260 -0.000000 -0.000000 
							CHANNELS 3 Zrotation Yrotation Xrotation
							End Site
							{
								OFFSET 0.000000 0.000000 0.000000 
							}
						}
					}
				}
			}
			JOINT RightArm
			{
				OFFSET -3.136600 1.374050 -0.404650 
				CHANNELS 3 Zrotation Yrotation Xrotation
				JOINT RightForeArm
				{
					OFFSET -5.241900 -0.000000 -0.000000 
					CHANNELS 3 Zrotation Yrotation Xrotation
					JOINT RightHand
					{
						OFFSET -3.444170 -0.000000 -0.000000 
						CHANNELS 3 Zrotation Yrotation Xrotation
						JOINT RightHandIndex1
						{
							OFFSET -0.622530 -0.000000 -0.000000 
							CHANNELS 3 Zrotation Yrotation Xrotation
							End Site
							{
								OFFSET 0.000000 0.000000 0.000000 
							}
						}
					}
				}
			}
		}
	}
}
MOTION
Frames: 15
Frame Time: 0.041667
12.214607 18.121681 -6.720845 4.172968 -33.646355 -1.361221 -8.775483 -9.617497 -13.100215 -0.001831 6.530439 18.728994 -3.968148 16.494312 -8.970028 0.761900 5.574300 15.554100 9.138304 16.647667 -1.501933 -1.261300 -6.931379 20.786833 0.264464 -3.220047 -6.560542 -0.028500 -1.089500 2.995200 -0.543635 1.951680 0.461185 -2.606156 0.681342 0.743622 6.072499 -4.656220 15.705946 1.757100 -1.832100 8.561700 -74.133163 -0.661444 -0.772465 36.431791 -41.571874 -16.183224 1.729466 -1.134259 168.180262 -7.125000 0.000000 0.000000 85.790133 -7.123598 62.298877 -65.855586 56.223844 -41.279433 1.244122 -0.172884 -14.054768 7.125000 0.000000 0.000000 
12.201065 18.116775 -6.767259 4.874069 -34.359322 -1.850125 -9.214095 -9.534815 -12.846078 -0.054388 6.426278 18.432499 -4.139789 17.142786 -9.461859 0.716300 5.408400 15.077100 8.608613 16.499096 -1.639106 -1.224219 -6.874583 20.558176 0.216363 -2.914104 -6.543806 -0.009300 -0.622500 1.710700 -0.699164 2.150436 0.471131 -2.538343 0.777885 0.717547 5.269188 -4.314685 16.299765 1.325000 -1.649700 8.806900 -74.019417 -0.665864 -0.555555 35.981053 -41.227290 -15.814041 1.735780 -1.179398 168.173484 -7.125000 0.000000 0.000000 86.575968 -5.909150 61.766867 -64.079677 55.810530 -39.708289 1.224998 -0.176482 -14.139232 7.125000 0.000000 0.000000 
12.189682 18.108630 -6.832612 5.157284 -35.013004 -2.003708 -9.195828 -9.574643 -12.799579 -0.090086 6.363930 18.234035 -4.314785 17.766030 -9.838274 0.648200 5.150200 14.337500 8.513237 16.427634 -1.891341 -1.194174 -6.791396 20.325316 0.197752 -2.744614 -6.371953 -0.009200 -0.620000 1.703800 -0.772813 2.322072 0.374030 -2.572224 0.869337 0.568133 4.634348 -4.054427 16.922176 0.972000 -1.503100 9.043000 -73.822523 -0.571931 -0.052578 35.492014 -40.846075 -15.434786 1.775317 -1.190805 168.545835 -7.125000 0.000000 0.000000 87.457019 -4.668273 61.304705 -62.249593 55.355409 -38.099062 1.203619 -0.183922 -14.112212 7.125000 0.000000 0.000000 
12.180753 18.100387 -6.908857 4.820793 -35.810309 -1.899069 -8.548554 -9.814531 -12.634140 -0.136873 6.330777 18.067253 -4.429072 18.196303 -10.631577 0.732500 5.467900 15.248100 9.066613 16.458245 -2.031528 -1.172581 -6.689380 20.109070 0.166632 -2.490478 -6.276368 -0.020200 -0.918700 2.525100 -0.741259 2.555706 0.318067 -2.834325 0.999165 0.364675 4.254667 -3.765659 17.319667 0.722800 -1.328700 9.186100 -73.526203 -0.544632 0.625023 34.891324 -40.377630 -14.993168 1.750299 -1.191536 169.019636 -7.125000 0.000000 0.000000 88.415804 -3.295868 60.791903 -60.464875 54.886244 -36.563766 1.167567 -0.167056 -14.014056 7.125000 0.000000 0.000000 
12.168094 18.097542 -6.973817 4.824882 -36.577184 -2.159714 -8.325116 -9.398911 -12.525634 -0.156869 6.324141 17.955278 -4.551407 18.619063 -10.750598 0.683000 5.283900 14.720200 9.355152 16.565850 -1.831837 -1.138403 -6.595111 19.851928 0.100265 -2.102681 -6.531774 -0.052200 -1.474500 4.055300 -0.749656 2.792597 0.325186 -2.971884 1.125800 0.190254 4.083235 -3.411534 17.583433 0.568600 -1.115300 9.246100 -73.330029 -0.593349 1.075066 34.183604 -39.810246 -14.455286 1.715237 -1.222257 169.806296 -7.125000 0.000000 0.000000 89.302978 -1.907605 60.261883 -58.595279 54.359828 -34.956008 1.131812 -0.160976 -13.678171 7.125000 0.000000 0.000000 
12.152884 18.104214 -7.037797 4.935539 -37.242429 -2.233267 -8.122748 -9.067190 -12.650781 -0.177804 6.308104 17.873986 -4.547922 18.627555 -11.058614 0.774100 5.617900 15.679600 9.468167 16.735044 -1.839725 -1.098450 -6.478641 19.535636 0.058485 -1.813253 -6.540916 -0.088600 -1.920200 5.285200 -0.724484 2.972808 0.345084 -2.982838 1.220337 0.226476 3.749622 -3.036854 17.812607 0.351500 -0.905100 9.314300 -73.254442 -0.835321 1.241949 33.463037 -39.202442 -13.887930 1.765894 -1.265182 171.042476 -7.125000 0.000000 0.000000 90.047393 -0.296585 59.987368 -56.741589 53.797003 -33.345915 1.111776 -0.186031 -13.091997 7.125000 0.000000 0.000000 
12.142483 18.108336 -7.115415 4.775613 -37.896388 -1.940949 -7.565877 -9.492277 -12.677440 -0.228848 6.249109 17.700420 -4.564648 18.752823 -12.016293 0.953200 6.217300 17.416200 9.712950 16.715317 -2.270959 -1.069904 -6.351624 19.242931 0.017030 -1.375089 -6.042364 -0.115000 -2.186800 6.022300 -0.617117 3.124777 0.298034 -3.024039 1.303547 0.240370 2.994553 -2.698433 18.251167 -0.053100 -0.731100 9.504900 -73.260540 -0.991618 1.391190 32.877081 -38.694732 -13.436780 1.816410 -1.291932 172.194364 -7.125000 0.000000 0.000000 90.613829 1.323037 59.990504 -55.339532 53.341408 -32.121589 1.109526 -0.205944 -12.565946 7.125000 0.000000 0.000000 
12.131787 18.101074 -7.181946 4.790869 -38.557543 -1.950702 -7.250719 -9.946185 -12.410080 -0.285042 6.175766 17.473875 -4.659938 19.169023 -12.902351 1.077600 6.598500 18.531100 9.804643 16.579928 -2.505730 -1.040983 -6.248646 18.972663 -0.056852 -0.721533 -5.558282 -0.158300 -2.563600 7.066000 -0.608172 3.278783 0.260985 -3.163647 1.386200 0.223204 2.476497 -2.440148 18.995644 -0.349700 -0.575800 9.831500 -73.215699 -0.905892 1.731692 32.305919 -38.198700 -13.013542 1.807496 -1.316841 172.973841 -7.125000 0.000000 0.000000 91.202239 2.689601 60.059937 -54.110423 52.916982 -31.042915 1.117298 -0.226906 -12.031341 7.125000 0.000000 0.000000 
12.115792 18.097149 -7.232481 5.107524 -39.192479 -2.386163 -7.267339 -10.090929 -12.004085 -0.330797 6.125103 17.306117 -4.711531 19.463861 -13.650572 1.215400 6.993200 19.695300 9.718769 16.520107 -2.377650 -1.012480 -6.183803 18.754853 -0.131832 -0.150258 -5.403846 -0.202300 -2.896300 7.990300 -0.706566 3.433399 0.355925 -3.310278 1.464754 0.309665 2.361038 -2.201966 19.501817 -0.464600 -0.413600 10.034800 -73.154970 -0.874748 2.021941 31.590205 -37.570884 -12.502506 1.749902 -1.315948 173.913980 -7.125000 0.000000 0.000000 91.888265 4.079804 60.080803 -52.729850 52.422336 -29.862265 1.107342 -0.247524 -11.535839 7.125000 0.000000 0.000000 
12.097344 18.102448 -7.301465 5.222315 -39.861440 -2.574657 -7.121955 -9.882424 -11.882781 -0.369903 6.052604 17.026811 -4.956383 20.278067 -13.774597 1.050700 6.518000 18.295100 9.868674 16.816707 -2.379697 -1.000588 -6.133671 18.635818 -0.159969 0.100142 -5.278210 -0.205200 -2.916400 8.046200 -0.669402 3.603198 0.397478 -3.290734 1.554286 0.290122 2.044527 -1.937325 19.539335 -0.664600 -0.271100 9.984100 -73.209342 -0.930661 2.186311 30.848442 -36.898607 -11.977808 1.703881 -1.303991 175.172865 -7.125000 0.000000 0.000000 92.493104 5.482602 60.193338 -51.542099 51.983436 -28.895241 1.075219 -0.222067 -11.555036 7.125000 0.000000 0.000000 
12.084980 18.101270 -7.380261 5.118909 -40.501241 -2.504217 -6.788187 -9.803904 -11.825176 -0.417744 5.954732 16.667857 -5.218967 21.123822 -13.881746 0.901400 6.050800 16.931900 10.228289 17.688959 -2.343503 -1.004258 -6.106629 18.621727 -0.108594 -0.191552 -5.071821 -0.176600 -2.706600 7.462900 -0.506969 3.761845 0.359441 -3.236846 1.642673 0.175106 1.555178 -1.709789 19.596190 -0.912600 -0.174100 9.943100 -73.431042 -0.996662 2.366553 30.136841 -36.217508 -11.462632 1.746568 -1.324309 176.487340 -7.125000 0.000000 0.000000 92.937817 6.933346 60.649297 -50.419403 51.550474 -28.002229 1.041646 -0.162181 -11.958997 7.125000 0.000000 0.000000 
12.082135 18.102840 -7.441296 5.481544 -40.984155 -2.790982 -6.872623 -9.971650 -11.590371 -0.467265 5.862421 16.403982 -5.321289 21.543176 -14.401355 0.942100 6.182000 17.313500 9.989880 17.537022 -2.628418 -1.003764 -6.096446 18.592608 -0.167686 0.366384 -4.597100 -0.133900 -2.359000 6.498800 -0.558322 3.921523 0.342041 -3.355673 1.726447 0.097459 1.170109 -1.600238 20.028457 -1.123600 -0.111100 10.118300 -73.700426 -1.027201 2.566699 29.481028 -35.562729 -10.984772 1.854288 -1.361712 177.673187 -7.125000 0.000000 0.000000 93.395700 8.700283 61.345345 -48.694240 50.836775 -26.573127 1.030993 -0.130801 -12.404164 7.125000 0.000000 0.000000 
12.078896 18.102742 -7.503607 5.693740 -41.495099 -2.995047 -6.870017 -9.854495 -11.515768 -0.502877 5.800899 16.208029 -5.414839 21.906937 -14.778166 1.039700 6.485100 18.198500 9.868113 17.163849 -3.002815 -1.005392 -6.078065 18.562101 -0.260983 1.191393 -4.181159 -0.116400 -2.199900 6.058300 -0.680780 4.128270 0.331613 -3.675999 1.833476 0.041670 0.883953 -1.551525 20.484829 -1.321000 -0.053200 10.344200 -73.779175 -1.145583 2.860174 28.874401 -34.947570 -10.549783 1.901607 -1.399389 178.783696 -7.125000 0.000000 0.000000 93.774189 9.596269 61.445173 -48.111253 50.580906 -26.073059 1.040650 -0.140414 -12.376850 7.125000 0.000000 0.000000 
12.069280 18.104607 -7.572100 5.321747 -41.922397 -2.710950 -6.382214 -9.649204 -11.654233 -0.526924 5.764487 16.038584 -5.531555 22.268699 -14.942961 1.139600 6.779200 19.062900 10.297041 17.108497 -3.255525 -1.001091 -6.010969 18.451515 -0.313229 1.725335 -3.846432 -0.129400 -2.318500 6.386600 -0.572408 4.248469 0.307495 -3.906348 1.900627 0.044696 0.565030 -1.463577 20.640516 -1.507900 -0.001000 10.426000 -73.784471 -1.494176 3.142817 28.121863 -34.166620 -10.016374 1.924261 -1.441744 -179.905262 -7.125000 0.000000 0.000000 93.918962 10.733658 61.902354 -47.164815 50.161085 -25.279361 1.046881 -0.145638 -12.567722 7.125000 0.000000 0.000000 
12.056720 18.107845 -7.635883 5.157052 -42.242929 -2.503854 -6.017790 -9.843770 -11.766205 -0.535875 5.782048 16.084567 -5.563650 22.436254 -15.488154 1.283700 7.179800 20.249100 10.512501 16.915840 -3.542668 -0.976378 -5.902336 18.194345 -0.362387 2.284180 -3.335019 -0.162600 -2.598000 7.161500 -0.417572 4.299690 0.306280 -3.910344 1.929903 0.121867 0.200738 -1.294600 20.772558 -1.690900 0.074200 10.489200 -73.874481 -1.928337 3.393331 27.260266 -33.239913 -9.411416 1.961741 -1.498922 -178.549320 -7.125000 0.000000 0.000000 93.973636 11.873952 62.407463 -46.133085 49.689553 -24.434289 1.042056 -0.141828 -12.640005 7.125000 0.000000 0.000000 
